<svg id="Layer_1" data-name="Layer 1" xmlns="http://www.w3.org/2000/svg" xmlns:xlink="http://www.w3.org/1999/xlink" viewBox="0 0 1625.09 823.92">
  <defs>
    <style>
      .cls-1 {
        isolation: isolate;
      }

      .cls-2 {
        fill: #ccc;
      }

      .cls-3 {
        fill: none;
        stroke: #090;
        stroke-linecap: round;
        stroke-linejoin: round;
      }
    </style>
  </defs>
  <g id="bg">
    <image id="Screen_Shot_2021_04_16_at_9_55_14_AM_png_png" data-name="Screen Shot 2021 04 16 at 9 55 14 AM png png" class="cls-1" width="2586" height="1582" transform="matrix(0.63, 0, 0, 0.52, 1.23, 0)" xlink:href="images/Screen_Shot_2021_04_16_at_9_55_14_AM_png_png.png"/>
  </g>
  <g id="bn2">
    <g>
      <path class="cls-2" d="M471.1,351.55l-27,9.55,23.5,8.5-23.5-8.5,24.5,34L412.6,416l.15.6,18.3,64.35-70.5-25.3L348.6,411.1h-.05l-133,47.5,200.05,77,118.5-59-2.25-17.25L512.6,466.1l19.25-6.75-1.25-9.75,45-20.5-1-12,12.35-6,3.65,1.5v-.3l0-10.25-81.55,34.5,3.5,29.05-26.5-9.55L431.6,481.1l54.5-25.05h0L480,426.6l29.15,9.95,81.55-34.5-33.55-10.5L539.2,400l-4.6-29.4-35.5,12-3.5-23.5-27.55,10.3L480,426.55l58.65-26-58.65,26-11.9-57.15,27.55-10.3-24.5-7.55m198,57.5,53.55-27L558.35,336.1l-39.25,14-1.05-1.3,16.55,21.8,4.6,29.4,17.9-8.45,33.55,10.5,0,10.25,1.5-3.7-1.5,4,6.5,2.5-.5,4.5,41-19,31.5,8.45M343.75,394.5l.25-.35q-3.86-13.62-2.3-7.3c.45,1.86,1.14,4.41,2.05,7.65m.25-.35-.25.35c.07.23.13.46.2.7q1.29,4.57,3.15,10.9.72,2.37,1.5,5l11.95,44.5,70.5,25.3-18.3-64.35-45.7-58.95-9.45,16.95L344,394.15M344,395.2c-.07-.24-.13-.47-.2-.7l-3.2,4.6q2.16-2.44,3.4-3.9M444.1,361.1l27-9.55,24.5,7.55,3.5,23.5,35.5-12-16.55-21.8L491.2,314.2,367.05,357.6l45.7,58.95-.15-.6,56-20.85-24.5-34m42,94.95,26.5,9.55-3.5-29.05L480,426.6l6.15,29.45Z" transform="translate(13.55 7.81)"/>
      <path class="cls-3" d="M519.1,350.1l39.28-14,164.27,45.93-53.55,27-31.5-8.45-41,19,.5-4.5-6.5-2.48v0L587,411.1l-12.37,6,1,12-45,20.5,1.25,9.75,2.25,17.25-118.5,59-200-77,133-47.48m.05,0-1.48-5q-1.87-6.33-3.17-10.9m.05-1.05,13.6-19.6-.43-.15,9.88-16.8L491.2,314.2l26.88,34.6M344,394.15l-.25.35c.07.23.13.46.2.7m194.65,5.35-58.65,26-11.9-57.16L495.6,359.1l-24.5-7.55-27,9.55,23.5,8.5m-100.55-12,45.72,58.95-.17-.6,56-20.85-24.5-34m-12.5,120,54.52-25.05h0L480,426.6l29.15,9.95,81.55-34.5-33.55-10.5L539.2,400l-4.6-29.4-35.5,12-3.5-23.5m22.48-10.3,16.52,21.8m56,41.73,0-10.28m-81.55,34.5,3.5,29.05-26.48-9.55m45.73,3.3L512.6,466.1m-164-55,11.95,44.5,70.5,25.3-18.28-64.35" transform="translate(13.55 7.81)"/>
    </g>
  </g>
  <g id="bn4">
    <g>
      <path class="cls-2" d="M913.2,441.05l-2.5-3.5-85.05,49.5-.5-20.5-7.5-2.5-12.5,6.5-.5,27.05-19,14.5-176.55,97q.35,0,138.5,53.3,69.1,26.6,138.1,53.25l274.55-216-240-62.55-7,4M876.7,510.6h0l19-12.5,18.5,6.5-.5,17.5,38-25-38-55.55,38,55.55-2,28.5,68,20-2,36.5L958.2,624.25v.35l-.3-.1-69.2-25.4-36.5,27.5V560.1l-45-62.5-46.55,32,1,67,90.05,30-90.05-30-1-67,46.55-32,45,62.5v.5l42.5-26.5q-.5.49-18-23.5m9.55,3q-9.11-2.78-9.55-3,17.5,24,18,23.5l-42.5,26.5v66l36.5-27.5v-36l7.7,2.6,52.35-34.6,62,18.5-62-18.5L896.4,565.7l65.3,22.4-3.5,36.15,57.55-42.15,2-36.5-56,42,56-42-68-20,2-28.5-38,25,.5-17.5-18,12-1.5,17,1.5-17-10-3m-9.55-3h0q.43.22,9.55,3l10,3,18-12-18.5-6.5-19,12.5m85,77.5-65.3-22.4-7.7-2.6v36l69.2,25.4.3-.25Z" transform="translate(13.55 7.81)"/>
      <path class="cls-3" d="M609.1,609.1l176.55-97,19-14.5.5-27.05,12.5-6.5,7.5,2.5.5,20.5,85.05-49.5,2.5,3.5,7-4,240,62.55-274.55,216Q816.7,689,747.6,662.4,609.45,609.11,609.1,609.1Zm242.6,17.5-90.05-30-1-67,46.55-32,45,62.5v.5l42.5-26.5q-.5.49-18-23.48v0l19-12.5,18.5,6.5-.5,17.5,38-25-38-55.55m-19,92.05,1.5-17-10-3q-9.11-2.78-9.55-3m75-13.52-2,28.5,68,20-2,36.5-57.53,42.15,0,.35-.3-.1-69.2-25.4-36.5,27.5v-66m62-56-18,12m-7.5,82.5v-36l7.7,2.6,52.35-34.6,62,18.5M896.4,565.7l65.3,22.4-3.48,36.15-.32.25m59.85-78.9-56,42" transform="translate(13.55 7.81)"/>
    </g>
  </g>
  <g id="bn5">
    <g>
      <path class="cls-2" d="M886.2,715.65q0,.3,109,42.2,54.55,21,109,41.8h153L1441.85,571.1l-281.1-71L886.2,715.65m432.1-42,15.5-38-15.5,38-47,55-87.5-33-35.55,36.5-102.55-37.5-.5-4,3-4,3.2-17.75-3.3,2.4a36.14,36.14,0,0,0-2.9,2.25l7.5-37.4,5-2,56-24,48.55,67.5,5.5-.5,34.5-33,22.5,33,6-2,2.35-2.45,52.65-54.55-8-11.5,8,11.5-52.65,54.55,51.1,16.45,49-53-50.5-14.5,50.5,14.5-49,53-.45.5-12.5,39,47-55m-170-126.55,66.55-30.5-66.55,30.5-35,32.5-9,9.5-6.5,2L1086,601.3,1056.4,627l58.95-25.2h0l100-85.2,46.9,67.4,27.55,8.1-12,14-39,39.5-6-1.5-4,17,43.5-44.5v-4l3.5-4,6,9.5-51.5,53.5-26.5-35-35.5,34.5-52.5-69.5-.4.15L1056.4,627l-9.7,4.15-5.5,34.5-4,3.5v2.5l8,2.5-8-2.5v-2.5l4-3.5,5.5-34.5,9.7-4.15,29.6-25.7,8.25-41.7,8-8,16,5-5,23,35-32.5m-39.5,18.5-14.5-6L1086,601.3l11.75-10.2,6.5-2,9-9.5,5-23-9.5,9-5,23,5-23m-6.5-14-8,8,14.5,6,9.5-9-16-5m150.8,29.7-2.3-.7,2.3.7,9.15,2.7-46.9-67.4-100,85.2h0l.4-.15,52.5,69.5,35.5-34.5,26.5,35,51.5-53.5-6-9.5-3.5,4v4l-43.5,44.5,4-17,6,1.5,39-39.5,12-14L1262.2,584l-9.15-2.7-49.8,46.85,2,6.5,6.15,2.05,20.85,6.95-20.85-6.95,16.35,24.45L1211.4,636.7l-6.15-2.05-2-6.5,49.8-46.85m-19.9,91.4-2.35,2.45-6,2-22.5-33-34.5,33-5.5.5-14,54.5,35.55-36.5,11.5-43.5-11.5,43.5,87.5,33,12.5-39,.45-.5-51.1-16.45m-188,.85a36.14,36.14,0,0,1,2.9-2.25l3.3-2.4,6.3-34.75-5,2-7.5,37.4m68.55-63.4-56,24-6.3,34.75-3.2,17.75-3,4,.5,4,102.55,37.5,14-54.5Z" transform="translate(13.55 7.81)"/>
      <path class="cls-3" d="M1282.8,621.65l50.5,14.5-49,53-.48.5-12.5,39,47-55,15.5-38m-288.55,38.5-8-2.5v-2.5l4-3.5,5.5-34.5,9.7-4.15,29.6-25.7,8.25-41.7,8-8,16,5-5,23,35-32.5,66.55-30.5m13,144.55L1211.4,636.7l-6.15-2.05-2-6.5,49.8-46.85-2.3-.7m2.3.7,9.15,2.7-46.9-67.4-100,85.23h0l.4-.18,52.5,69.5,35.5-34.5,26.5,35,51.5-53.5-6-9.5-3.5,4v4l-43.5,44.5,4-17,6,1.5,39-39.5,12-14L1262.2,584m-168-24.4,14.5,6,9.5-9M1086,601.3l11.75-10.2,6.5-2,9-9.5m-4.5-14-5,23m167.55,140-87.5-33-35.55,36.5-102.55-37.5-.5-4,3-4,3.2-17.75-3.3,2.4a32.1,32.1,0,0,0-2.88,2.25l7.48-37.4,5-2,56-24,48.55,67.5,5.5-.5,34.5-33,22.5,33,6-2,2.35-2.45,52.65-54.55-8-11.5M1056.4,627l58.95-25.17M1051.4,668.9l6.3-34.75m175.45,38.55,51.13,16.45m-100.48,6.5,11.5-43.5m-47,80,14-54.5m49.1-40.95,20.85,6.95m-346,72L1160.75,500.1l281.1,71L1257.3,799.65h-153q-54.49-20.85-109-41.8Q886.15,716,886.2,715.65Z" transform="translate(13.55 7.81)"/>
    </g>
  </g>
  <g id="bn6">
    <g>
      <path class="cls-2" d="M1015.15,310.35l-.4.2.4-.2-12.4-2.8-.5,6.1,43.5,8.9-43.5-8.9v0l-.5-.1L969,330.4l44.75,9.65,0,.25,40-21.25-38.6-8.7m-23.4-17.3-13-15.55,13,15.55.5-14.55-13-1.5,10.5-6.5,14.55,3.15.45-.15-.5,13.5,23-11.5L999.75,233l-59.5,25.6L934.7,261l30,44.05-2,24L969,330.4l32.75-16.85.5.1.5-6.1,12.4,2.8,8.6-4.3,1.2-10.35,2.3-20.2-23,11.5.5-13.5-.45.15-12,4.85-.5,14.55-27,11.5,27-11.5M930.7,251l-4.5,3.5-1,14.2,9.5-7.7,5.55-2.4-.55-7.6h-9m83,89.3-2.85,30.7,39.4-21.95,3.5-30-40,21.25m0,0,0-.25L969,330.4l-6.25-1.35,2-24L934.7,261l-9.5,7.7-27.5,22.35v4.5l-.6.3-1.9,49.2,115.55,27,.1-1.05,2.85-30.7-.45.25.45-.25m10-34.25-8.6,4.3,38.6,8.7-3.5,30L1010.85,371l-.1,1.05-115.55-27,1.9-49.2-174.45,86.7q0-.3,98.8,27.55,49.35,13.95,98.75,27.95l214.55-119.5L1025,295.7l-1.2,10.35m-31.5-27.55,12-4.85-14.55-3.15-10.5,6.5Z" transform="translate(13.55 7.81)"/>
      <path class="cls-3" d="M964.75,304.55l27-11.5-13-15.55m48.5-2-23,11.5.5-13.5-.42.17-12.08,4.83-.5,14.55m.5-14.55-13-1.5,10.5-6.5,14.58,3.17M722.65,382.55l174.45-86.7.6-.3v-4.5l27.52-22.35,1-14.2,4.5-3.5h9l.55,7.6,59.5-25.6,27.5,42.5-2.3,20.2,109.8,22.85L920.2,438.05q-49.4-14-98.75-27.95Q722.65,382.24,722.65,382.55ZM1025,295.7l-1.2,10.35-8.6,4.3,38.6,8.7-3.5,30L1010.85,371l-.1,1.05-115.55-27,1.9-49.2m118,14.5-.4.2m-12.5,3.5,0-.4-.53-.1L969,330.4l44.75,9.65,0,.25,40-21.25M1010.85,371l2.87-30.7-.47.25m1.9-30.2-12.4-2.8-.47,6.1,43.47,8.9M925.22,268.7l9.48-7.7,5.55-2.4M934.7,261l30,44.05-2,24L969,330.4" transform="translate(13.55 7.81)"/>
    </g>
  </g>
  <g id="bn1">
    <g>
      <path class="cls-2" d="M170.05,337.05l5.5,13.2,19,45.8,68.5,24-20-61-73-22m388.55-1L495.8,320.1l23.3,30,39.5-14.05m-226.5,29.5,25.5,9,9.45-16.95,32-12L360,334.4l5.1,20.15-33,11m12,29-6-1.5-75,27-68.5-24-19-45.8L58.05,394.1q-1.39,2,78.1,33.25l79.4,31.25L348.6,411.1q-.5-.56-4.5-16.55m-6-1.5,6,1.5c.43-.4.87-.82,1.3-1.25q1.35-1.24,1.65-1.2l10.55-17.55-25.5-9,6,27.5m19-69.85h0l.45-.15L300.2,305.4l-14.1-4.35-56,18-.5-7-5.5-.5-12.5,4,1.5,9.5-43,12,73,22,114-35.85m0,0L360,334.4l39.05,11.2,83.55-29.05-123-33L300.2,305.4l57.4,17.65-.45.15M360,334.4l-2.85-11.2h0l-114,35.85,20,61,75-27-6-27.5,33-11Z" transform="translate(13.55 7.81)"/>
      <path class="cls-3" d="M357.15,323.2h0l-114,35.85,20,61,75-27-6-27.5,33-11L360,334.4l-2.85-11.2.45-.15L300.2,305.4l-14.1-4.35-56,18-.5-7-5.5-.5-12.5,4,1.5,9.5-43,12,73,22m95,34,6,1.5c.43-.4.87-.82,1.3-1.25q1.35-1.24,1.65-1.2l10.55-17.55-25.5-9M360,334.4l39.05,11.2,83.55-29.05-123-33L300.2,305.4m98.85,40.2-32,12-9.45,16.95m125-58,8.5-2.5,4.7,6.05,62.8,15.95L519.1,350.1l-23.3-30M170.05,337.05l5.5,13.2,19,45.8,68.5,24m81-25.5q4,16,4.5,16.55l-133,47.5-79.4-31.25q-79.5-31.25-78.1-33.25l117.5-43.85" transform="translate(13.55 7.81)"/>
    </g>
  </g>
  <g id="bn3">
    <g>
      <path class="cls-2" d="M530.1,449.6l4,27,6.5,39,68.5,26.5-8.45-68.65L530.5,449.4l-.4.2m137,10.5,67-33L668.85,409l-30.25-8.4-42,19v-5l-10.5-3.5-11.5,6.5,1.5,11.55-45.6,20.3,70.15,24.05.45.15,43-21,23,7.5m67.55,5,0-5.45-.45-32.55-67,33-23-7.5,3.55,43,49.5,16,1.5,21-1.5-21-49.5-16-3.55-43-43,21-.45-.15,8.45,68.65,45.55-24,44,15v4l9,3.5,67-39V470.1l-68,37-32.6-10.3-5.4-1.7-1.5-34.5,1.5,34.5,5.4,1.7,60.6-31.7m0-5.45,0,5.45-60.6,31.7,32.6,10.3,68-37-40-10.45m179.1-19,6-3.5L722.65,382.55,668.85,409l65.3,18.15.45,32.55,40,10.45v31.5l-67,39-9-3.5v-4l-44-15-45.55,24-68.5-26.5-6.5-39-117.55,59q-.3-.3,96.1,36.55,48.26,18.45,96.5,37l157.05-87,15.5-8,23.5-16V470.6l13-7,7,3,.5,20.5,85-49.5Z" transform="translate(13.55 7.81)"/>
      <path class="cls-3" d="M416.55,535.6l117.55-59-4-27,.43-.18L576.1,429.1l-1.5-11.55,11.5-6.5,10.5,3.5v5l42-19,30.25,8.4,53.8-26.4L919.7,437.1l-6,3.5-3-3-85,49.5-.5-20.5-7-3-13,7v27.5l-23.5,16-15.5,8-157.05,87q-48.25-18.5-96.5-37Q416.25,535.3,416.55,535.6Zm290.1-28.5,68-37-40-10.45,0,5.45-60.57,31.73ZM668.85,409l65.3,18.15.45,32.55m-36,73-1.5-21-49.5-16-3.55-43-43,21-.45-.15,8.45,68.65,45.55-24,44,15v4l9,3.5,67-39V470.1M674.08,496.83l-5.43-1.73-1.5-34.5m67-33.5-67,33-23-7.5m-35,89.5-68.5-26.5-6.5-39m66.55-3.15-70.12-24" transform="translate(13.55 7.81)"/>
    </g>
  </g>
</svg>
