<?xml version="1.0" encoding="utf-8"?>
<!-- Generator: Adobe Illustrator 25.2.2, SVG Export Plug-In . SVG Version: 6.00 Build 0)  -->
<svg version="1.1" id="Layer_1" xmlns="http://www.w3.org/2000/svg" xmlns:xlink="http://www.w3.org/1999/xlink" x="0px" y="0px"
	 viewBox="0 0 1600 800" style="enable-background:new 0 0 1600 800;" xml:space="preserve">
<style type="text/css">
	.st0{fill:#CCCCCC;}
	.st1{fill:none;stroke:#009900;stroke-linecap:round;stroke-linejoin:round;}
</style>
<g id="bg">
	<g transform="matrix( 0.620880126953125, 0, 0, 0.517852783203125, -3.75,-6.65) ">
		<g>
			
				<image style="overflow:visible;enable-background:new    ;" width="2586" height="1582" id="Screen_Shot_2021_04_16_at_9_55_14_AM_png_png" xlink:href="images/Screen_Shot_2021_04_16_at_9_55_14_AM_png_png.png"  transform="matrix(0.9762 0 0 0.9762 3.1068 10.4202)">
			</image>
		</g>
	</g>
</g>
<g id="lines">
	<g>
		<g>
			<g>
				<path class="st0" d="M486.1,456l26.5,9.6l-3.5-29.1l-29.1-9.9L486.1,456 M539.2,400l0.4,2.5l-59.6,24v0.1l29.1,9.9l81.6-34.5
					l-33.6-10.5L539.2,400 M590.6,412.6l0.1-10.6l-81.6,34.5l3.5,29.1l-26.5-9.6v0.1l-54.5,25l-0.6-0.2l-70.5-25.3l-11.9-44.5h-0.1
					l-133,47.5l200.1,77l118.5-59l-2.2-17.2l-19.2,6.8l19.2-6.8l-1.2-9.8l45-20.5l-1-12l12-6L590.6,412.6 M170.1,337l5.5,13.2
					l19.1,45.8l68.5,24l-20-61L170.1,337 M499.1,382.6l-3.5-23.5L468,369.4l11.9,57.1l59.6-24l-0.4-2.5l-4.6-29.4L499.1,382.6
					 M496.3,320.2l-0.5-0.1l9.8,12.4L496.3,320.2 M558.3,336.1l-4.8-1.4l-57.2-14.5l9.3,12.3l12.4,16.2l1,1.3L558.3,336.1
					 M558.6,336l-5-1.3l4.8,1.4L558.6,336 M444.1,361.1l27-9.6l24.5,7.6l3.5,23.5l35.5-12L518,348.8l-12.4-16.2l-9.8-12.4l-4.6-5.9
					L367,357.6l45.6,59l3-1.1l53-20.4L444.1,361.1 M468,369.4l-0.4,0.2l-23.5-8.5l24.5,34l-53,20.4l15.4,65.4l0.6,0.2l54.5-25V456
					l-6.1-29.4v-0.1L468,369.4 M467.6,369.6l0.4-0.2l27.6-10.3l-24.5-7.6l-27,9.6L467.6,369.6 M332.1,365.5l25,8.9l9.9-16.8l32-12
					l-39-11.2l5.1,20.1L332.1,365.5 M357.6,374.5L347,392.1c-0.2,0-0.7,0.4-1.6,1.2c-0.4,0.4-0.9,0.9-1.3,1.2c0.1,0.5,0.2,1,0.4,1.4
					c2.4,9.8,3.8,14.8,4.1,15.1l11.9,44.5l70.5,25.3l-15.4-65.4l-3,1.1l-45.6-59L357.6,374.5 M357.6,374.5l-0.5-0.1L347,391.6
					l-2.9,2.9c0.4-0.4,0.9-0.8,1.3-1.2c0.9-0.8,1.5-1.2,1.6-1.2L357.6,374.5 M357.1,374.4l0.5,0.1l9.4-16.9L357.1,374.4
					 M344.1,394.5L344.1,394.5c0.1,0.5,0.2,1,0.4,1.4C344.3,395.5,344.2,395,344.1,394.5 M344,394.5l-5.9-1.5l-75,27l-68.5-24
					l-19.1-45.8L58,394.1c-0.9,1.3,25.1,12.4,78.1,33.2c26.5,10.4,53,20.8,79.4,31.2l133-47.5h0.1c-0.3-0.3-1.7-5.4-4.1-15.1
					C344.3,395.5,344.2,395.1,344,394.5 M338.1,393l5.9,1.5h0.1l2.9-2.9l10.1-17.2l-25-8.9L338.1,393 M357.1,323.2L357.1,323.2
					l-114,35.8l20,61l75-27l-6-27.5l33-11l-5.1-20.1L357.1,323.2 M357.1,323.2l0.5-0.2l-57.4-17.6l-14.1-4.4l-56,18l-0.5-7l-5.5-0.5
					l-12.5,4l1.5,9.5l-43.1,12l73.1,22L357.1,323.2L357.1,323.2 M357.6,323l-0.5,0.2l2.9,11.2l39,11.2l83.6-29.1l-123-33l-59.4,21.9
					L357.6,323 M669.1,409l53.6-27l-164.3-45.9l-39.2,14l-1-1.3l16.5,21.8l4.6,29.4l17.9-8.5l33.6,10.5l-0.1,10.6l6.5,2.5l-0.5,4.5
					l41-19L669.1,409z"/>
			</g>
		</g>
		<g>
			<path class="st1" d="M590.6,412.6l6.5,2.5l-0.5,4.5l41-19l31.5,8.4l53.6-27l-164.3-45.9l-39.3,14l-1-1.3l16.5,21.8l4.6,29.4
				l17.9-8.5l33.6,10.5L590.6,412.6l-4-1.5l-12,6l1,12l-45,20.5l1.2,9.8l2.2,17.2l-118.5,59l-200.1-77
				c-26.4-10.4-52.9-20.8-79.4-31.2c-53-20.8-79-31.9-78.1-33.2l117.5-43.9l-5.5-13.2l43.1-12l-1.5-9.5l12.5-4l5.5,0.5l0.5,7l56-18
				l14.1,4.4l59.4-21.9l123,33l8.5-2.5l0.1,0.2l0.4-0.2l4.7,6.2l57.2,14.5l5,1.3l-0.2,0.1l-4.8-1.4 M300.2,305.4l57.4,17.6l-0.5,0.2
				l2.9,11.2l39,11.2l83.6-29.1 M357.1,323.2L357.1,323.2l-114,35.8l20,61l75-27l-6-27.5l33-11l-5.1-20.1 M338.1,393l6,1.5h0
				l2.9-2.9l10.1-17.2l-25.1-8.9 M357.6,374.5l9.4-16.9l-9.9,16.8L357.6,374.5L347,392.1c-0.2,0-0.7,0.4-1.6,1.2
				c-0.4,0.4-0.9,0.9-1.3,1.2c0.1,0.5,0.2,1,0.4,1.4c2.4,9.7,3.8,14.8,4.1,15.1l11.9,44.5l70.5,25.3l-15.4-65.4l-3,1.1l-45.6-59
				l32-12 M344.5,396c-0.1-0.4-0.3-0.9-0.4-1.4 M495.6,359.1l-24.5-7.6l-27,9.6l23.5,8.5l0.4-0.2L495.6,359.1l3.5,23.5l35.5-12
				 M444.1,361.1l24.5,34l-53,20.4 M491.2,314.2l4.6,5.9l0.5,0.1l9.3,12.4l12.5,16.2 M495.8,320.1l9.8,12.5 M367,357.6l124.2-43.4
				 M243.1,359l-73.1-22 M175.6,350.2l19.1,45.8l68.5,24 M539.2,400l0.4,2.5l-59.6,24v0l29.1,9.9l81.6-34.5 M509.1,436.5l3.5,29.1
				l-26.5-9.6v0.1l-54.5,25l-0.6-0.2 M531.8,459.4l-19.2,6.8 M348.6,411.1L348.6,411.1l-133.1,47.5 M486.1,456l-6.1-29.4 M480,426.6
				L468,369.4"/>
		</g>
	</g>
</g>
<g id="bn2">
	<g>
		<g>
			<g>
				<path class="st0" d="M486.1,456l26.5,9.6l-3.5-29.1l-29.1-9.9L486.1,456L486.1,456 M471.1,351.5l-27,9.6l23.5,8.5l-23.5-8.5
					l24.5,34l-53,20.4l15.4,65.4l-70.5-25.3l-11.9-44.5h-0.1l-133,47.5l200.1,77l118.5-59l-2.2-17.2l-19.2,6.8l19.2-6.8l-1.2-9.8
					l45-20.5l-1-12l12-6l4,1.5l0.1-10.6l-81.6,34.5l3.5,29.1l-26.5-9.6l-54.5,25.1l54.5-25.1l0,0l-6.1-29.4l29.1,9.9l81.6-34.5
					l-33.6-10.5l-17.9,8.5l-4.6-29.4l-35.5,12l-3.5-23.5L468,369.4l11.9,57.1l59.6-24l-59.6,24L468,369.4l27.6-10.3L471.1,351.5
					 M357.6,374.5L347,392.1c-0.2,0-0.7,0.4-1.6,1.2c-0.4,0.4-0.9,0.9-1.3,1.2c0.1,0.5,0.2,1,0.4,1.4c2.4,9.8,3.8,14.8,4.1,15.1
					l11.9,44.5l70.5,25.3l-15.4-65.4l53-20.4l-24.5-34l27-9.6l24.5,7.6l3.5,23.5l35.5-12L518,348.8l-26.8-34.6L367,357.6l45.6,59
					l-45.6-59L357.6,374.5 M669.1,409l53.6-27l-164.3-45.9l-39.2,14l-1-1.3l16.5,21.8l4.6,29.4l17.9-8.5l33.6,10.5l-0.1,10.6
					l6.5,2.5l-0.5,4.5l41-19L669.1,409z"/>
			</g>
		</g>
		<g>
			<path class="st1" d="M519.1,350.1l39.3-14L722.7,382l-53.6,27l-31.5-8.4l-41,19l0.5-4.5l-6.5-2.5 M586.6,411.1l-12,6l1,12
				l-45,20.5l1.2,9.8l2.2,17.2l-118.5,59l-200.1-77l133-47.5 M344.5,396c2.4,9.7,3.8,14.8,4.1,15.1 M347,392.1l10.6-17.6l-0.4-0.1
				l9.9-16.8l124.2-43.4l26.9,34.6 M539.6,402.5l-59.6,24L468,369.4l27.6-10.3l-24.5-7.6l-27,9.6l23.5,8.5 M348.6,411.1l11.9,44.5
				l70.5,25.3l-15.4-65.4l53-20.4l-24.5-34 M431.6,481.1l54.5-25.1h0l-6.1-29.4l29.1,9.9l81.6-34.5l-33.6-10.5l-17.9,8.5l-4.6-29.4
				l-35.5,12l-3.5-23.5 M518.1,348.8l16.5,21.8 M590.6,412.6l0.1-10.6 M509.1,436.5l3.5,29.1l-26.5-9.6 M531.8,459.4l-19.2,6.8
				 M412.6,416.6l-45.6-59"/>
		</g>
	</g>
</g>
<g id="bn1">
	<g>
		<g>
			<g>
				<path class="st0" d="M170.1,337l5.5,13.2l19.1,45.8l68.5,24l-20-61L170.1,337 M558.6,336l-62.8-15.9l23.3,30L558.6,336
					 M332.1,365.5l25.5,9l9.4-16.9l32-12l-39-11.2l5.1,20.1L332.1,365.5 M344.1,394.5l-6-1.5l-75,27l-68.5-24l-19.1-45.8L58,394.1
					c-0.9,1.3,25.1,12.4,78.1,33.2c26.5,10.4,53,20.8,79.4,31.2l133.1-47.5C348.3,410.7,346.8,405.2,344.1,394.5 M338.1,393l6,1.5
					c0.4-0.4,0.9-0.8,1.3-1.2c0.9-0.8,1.5-1.2,1.6-1.2l10.6-17.6l-25.5-9L338.1,393 M357.1,323.2L357.1,323.2l0.5-0.2l-57.4-17.6
					l-14.1-4.4l-56,18l-0.5-7l-5.5-0.5l-12.5,4l1.5,9.5l-43.1,12l73.1,22L357.1,323.2 M357.1,323.2l2.9,11.2l39,11.2l83.6-29.1
					l-123-33l-59.4,21.9l57.4,17.6L357.1,323.2 M360,334.4l-2.9-11.2h0l-114,35.8l20,61l75-27l-6-27.5l33-11L360,334.4z"/>
			</g>
		</g>
		<g>
			<path class="st1" d="M357.1,323.2L357.1,323.2l-114,35.8l20,61l75-27l-6-27.5l33-11l-5.1-20.1L357.1,323.2l0.5-0.2l-57.4-17.6
				l-14.1-4.4l-56,18l-0.5-7l-5.5-0.5l-12.5,4l1.5,9.5l-43.1,12l73.1,22 M338.1,393l6,1.5c0.4-0.4,0.9-0.8,1.3-1.2
				c0.9-0.8,1.5-1.2,1.6-1.2l10.6-17.6l-25.5-9 M482.6,316.5L399,345.6l-32,12l-9.4,16.9 M360,334.4l39,11.2 M300.2,305.4l59.4-21.9
				l123,33l8.5-2.5l4.7,6.1l62.8,15.9l-39.5,14.1l-23.3-30 M170.1,337l5.5,13.2l19.1,45.8l68.5,24 M344.1,394.5
				c2.7,10.7,4.2,16.2,4.5,16.6l-133.1,47.5c-26.4-10.4-52.9-20.8-79.4-31.2c-53-20.8-79-31.9-78.1-33.2l117.5-43.9"/>
		</g>
	</g>
</g>
</svg>
